# xmcd CD database file
#
# Track frame offsets:
#	150
#	12375
#	25075
#
# Disc length: 592 seconds
#
# Revision: 3
# Processed by: cddbd v1.5.1PL0 Copyright (c) Steve Scherf et al.
# Submitted via: CDex 1.51
#
DISCID=18024e03
DTITLE=Paul Kelly and the Messengers - Don't start me talking
DYEAR=1991
DGENRE=Oz-Rock
TTITLE0=Don't start me talking
TTITLE1=From St Kilda to Kings Cross
TTITLE2=Elly
EXTD=YEAR: 1991
EXTT0=
EXTT1=
EXTT2=
PLAYORDER=
